<svg xmlns="http://www.w3.org/2000/svg" width="698.888" height="165.749" viewBox="0 0 184.914 43.854"><path style="line-height:1.25;-inkscape-font-specification:'Lemon/Milk light, '" d="M166.434 14.28l12.31 29.198h6.17L166.405 0l-18.51 43.478h6.17zM133.702.406h-9.674v5.706H135.527v37.366h5.765V6.112h11.499V.406h-9.675zM105.924.058c-3.1 0-5.909.55-8.4 1.593-2.549 1.072-4.924 2.694-7.068 4.837-2.201 2.23-3.794 4.606-4.808 7.126-1.072 2.549-1.593 5.33-1.593 8.371 0 3.07.521 5.88 1.593 8.371 1.014 2.578 2.607 4.953 4.808 7.097 2.115 2.143 4.461 3.766 7.068 4.808 2.578 1.072 5.388 1.593 8.4 1.593 2.955 0 5.764-.521 8.371-1.593 2.607-1.071 4.953-2.665 7.097-4.808 2.143-2.144 3.765-4.49 4.837-7.068 1.072-2.578 1.622-5.387 1.622-8.4 0-2.983-.55-5.793-1.622-8.4-1.072-2.549-2.694-4.895-4.837-7.068-2.201-2.172-4.577-3.794-7.097-4.866-2.549-1.043-5.33-1.593-8.37-1.593zm0 5.822c2.144 0 4.2.406 6.112 1.188 1.912.84 3.65 2.027 5.214 3.534 1.535 1.622 2.694 3.33 3.505 5.184.81 1.912 1.216 3.969 1.216 6.141 0 2.23-.405 4.287-1.216 6.141-.782 1.883-1.97 3.62-3.534 5.185-1.564 1.564-3.273 2.723-5.185 3.505-1.912.81-3.968 1.187-6.112 1.187-2.201 0-4.258-.376-6.17-1.187a14.2 14.2 0 0 1-5.156-3.505c-1.622-1.564-2.78-3.302-3.533-5.185-.783-1.854-1.159-3.881-1.159-6.14 0-2.202.376-4.23 1.159-6.142.753-1.853 1.94-3.591 3.533-5.184 1.478-1.507 3.187-2.665 5.156-3.534 1.912-.782 3.969-1.188 6.17-1.188zM74.206 43.478h5.765V.406h-5.765zM41.856 4.485l10.646 18.672.472.786-.472.813L41.83 43.481l5.979.026 6.766-11.801 1.416-2.492 1.416 2.492 6.766 11.775h5.98l-10.7-18.698-.472-.813.472-.813 10.7-18.672h-5.98L57.406 16.26l-1.416 2.465-1.416-2.465-6.74-11.775zm-8.943 38.996h5.218V4.485h-5.218zM0 43.478h5.764V29.487h8.806c1.999 0 3.852-.347 5.59-1.042 1.71-.696 3.302-1.767 4.75-3.216 1.42-1.419 2.492-2.983 3.216-4.663.695-1.68 1.043-3.563 1.043-5.59 0-2-.348-3.853-1.043-5.591-.753-1.709-1.825-3.273-3.244-4.693-1.478-1.448-3.042-2.52-4.722-3.215C18.451.782 16.597.406 14.57.406H0v30.877zm5.764-21.493V6.112h8.806c1.216 0 2.375.232 3.418.666a9.284 9.284 0 0 1 2.838 1.97c.87.956 1.507 1.912 1.912 2.867a8.482 8.482 0 0 1 .666 3.36c0 1.275-.231 2.405-.666 3.39a10.339 10.339 0 0 1-1.912 2.867c-.926.898-1.882 1.535-2.867 1.94-1.043.435-2.173.638-3.39.638l-7.009-.029H5.764z" font-weight="400" font-family="Lemon/Milk light" letter-spacing="0" word-spacing="0"/></svg>